<svg id="visual" viewBox="0 0 900 600" width="900" height="600" xmlns="http://www.w3.org/2000/svg" xmlns:xlink="http://www.w3.org/1999/xlink" version="1.1"><path d="M0 85L13.7 79C27.3 73 54.7 61 82 63C109.3 65 136.7 81 163.8 81C191 81 218 65 245.2 64C272.3 63 299.7 77 327 86C354.3 95 381.7 99 409 94C436.3 89 463.7 75 491 66C518.3 57 545.7 53 573 55C600.3 57 627.7 65 654.8 66C682 67 709 61 736.2 56C763.3 51 790.7 47 818 51C845.3 55 872.7 67 886.3 73L900 79L900 0L886.3 0C872.7 0 845.3 0 818 0C790.7 0 763.3 0 736.2 0C709 0 682 0 654.8 0C627.7 0 600.3 0 573 0C545.7 0 518.3 0 491 0C463.7 0 436.3 0 409 0C381.7 0 354.3 0 327 0C299.7 0 272.3 0 245.2 0C218 0 191 0 163.8 0C136.7 0 109.3 0 82 0C54.7 0 27.3 0 13.7 0L0 0Z" fill="#df4f6a"></path><path d="M0 169L13.7 167C27.3 165 54.7 161 82 160C109.3 159 136.7 161 163.8 157C191 153 218 143 245.2 138C272.3 133 299.7 133 327 145C354.3 157 381.7 181 409 176C436.3 171 463.7 137 491 121C518.3 105 545.7 107 573 123C600.3 139 627.7 169 654.8 179C682 189 709 179 736.2 169C763.3 159 790.7 149 818 144C845.3 139 872.7 139 886.3 139L900 139L900 77L886.3 71C872.7 65 845.3 53 818 49C790.7 45 763.3 49 736.2 54C709 59 682 65 654.8 64C627.7 63 600.3 55 573 53C545.7 51 518.3 55 491 64C463.7 73 436.3 87 409 92C381.7 97 354.3 93 327 84C299.7 75 272.3 61 245.2 62C218 63 191 79 163.8 79C136.7 79 109.3 63 82 61C54.7 59 27.3 71 13.7 77L0 83Z" fill="#d43352"></path><path d="M0 343L13.7 342C27.3 341 54.7 339 82 332C109.3 325 136.7 313 163.8 293C191 273 218 245 245.2 236C272.3 227 299.7 237 327 253C354.3 269 381.7 291 409 313C436.3 335 463.7 357 491 348C518.3 339 545.7 299 573 284C600.3 269 627.7 279 654.8 279C682 279 709 269 736.2 280C763.3 291 790.7 323 818 316C845.3 309 872.7 263 886.3 240L900 217L900 137L886.3 137C872.7 137 845.3 137 818 142C790.7 147 763.3 157 736.2 167C709 177 682 187 654.8 177C627.7 167 600.3 137 573 121C545.7 105 518.3 103 491 119C463.7 135 436.3 169 409 174C381.7 179 354.3 155 327 143C299.7 131 272.3 131 245.2 136C218 141 191 151 163.8 155C136.7 159 109.3 157 82 158C54.7 159 27.3 163 13.7 165L0 167Z" fill="#c70039"></path><path d="M0 481L13.7 468C27.3 455 54.7 429 82 424C109.3 419 136.7 435 163.8 431C191 427 218 403 245.2 388C272.3 373 299.7 367 327 370C354.3 373 381.7 385 409 408C436.3 431 463.7 465 491 456C518.3 447 545.7 395 573 373C600.3 351 627.7 359 654.8 371C682 383 709 399 736.2 418C763.3 437 790.7 459 818 451C845.3 443 872.7 405 886.3 386L900 367L900 215L886.3 238C872.7 261 845.3 307 818 314C790.7 321 763.3 289 736.2 278C709 267 682 277 654.8 277C627.7 277 600.3 267 573 282C545.7 297 518.3 337 491 346C463.7 355 436.3 333 409 311C381.7 289 354.3 267 327 251C299.7 235 272.3 225 245.2 234C218 243 191 271 163.8 291C136.7 311 109.3 323 82 330C54.7 337 27.3 339 13.7 340L0 341Z" fill="#ac0034"></path><path d="M0 601L13.7 601C27.3 601 54.7 601 82 601C109.3 601 136.7 601 163.8 601C191 601 218 601 245.2 601C272.3 601 299.7 601 327 601C354.3 601 381.7 601 409 601C436.3 601 463.7 601 491 601C518.3 601 545.7 601 573 601C600.3 601 627.7 601 654.8 601C682 601 709 601 736.2 601C763.3 601 790.7 601 818 601C845.3 601 872.7 601 886.3 601L900 601L900 365L886.3 384C872.7 403 845.3 441 818 449C790.7 457 763.3 435 736.2 416C709 397 682 381 654.8 369C627.7 357 600.3 349 573 371C545.7 393 518.3 445 491 454C463.7 463 436.3 429 409 406C381.7 383 354.3 371 327 368C299.7 365 272.3 371 245.2 386C218 401 191 425 163.8 429C136.7 433 109.3 417 82 422C54.7 427 27.3 453 13.7 466L0 479Z" fill="#92002e"></path></svg>